<?xml version="1.0" encoding="UTF-8"?>
<svg width="452px" height="318px" viewBox="0 0 452 318" xmlns="http://www.w3.org/2000/svg" xmlns:xlink="http://www.w3.org/1999/xlink" version="1.1">
 <!-- Generated by Pixelmator Pro 2.0.6 -->
 <path id="パス" d="M37.379 12.615 L37.379 99.011 26.754 99.011 26.754 12.615 1.925 12.615 1.925 3.02 62.209 3.02 62.209 12.616 37.379 12.616 Z M104.834 101.314 C76.804 101.314 73.479 75.587 73.222 48.966 73.222 26.95 76.548 1.096 105.091 1.096 133.121 1.096 136.575 26.95 136.447 48.966 136.322 75.588 132.864 101.314 104.834 101.314 Z M104.578 10.696 C88.195 10.696 84.099 27.848 84.228 49.223 84.356 76.997 87.172 91.714 104.833 91.714 122.495 91.714 125.312 76.997 125.439 49.223 125.568 27.849 121.474 10.696 104.578 10.696 Z M201.217 99.011 L201.217 52.678 164.485 52.678 164.485 99.011 153.859 99.011 153.859 3.02 164.485 3.02 164.485 43.079 201.217 43.079 201.217 3.02 211.839 3.02 211.839 99.011 Z M260.992 101.314 C232.965 101.314 229.635 75.587 229.379 48.966 229.379 26.95 232.707 1.096 261.248 1.096 289.277 1.096 292.736 26.95 292.607 48.966 292.479 75.588 289.021 101.314 260.992 101.314 Z M260.738 10.696 C244.355 10.696 240.258 27.848 240.384 49.223 240.513 76.997 243.329 91.714 260.991 91.714 278.655 91.714 281.471 76.997 281.596 49.223 281.727 27.849 277.631 10.696 260.738 10.696 Z M372.361 99.011 L359.306 99.011 333.324 52.678 323.344 65.732 323.344 99.011 312.59 99.011 312.59 3.02 323.215 3.02 323.215 52.293 323.471 52.293 358.156 3.02 371.467 3.02 340.877 43.207 Z M416.818 101.314 C399.412 101.314 388.021 92.996 388.021 75.843 L388.021 3.02 398.644 3.02 398.644 72.006 C398.515 79.555 399.796 91.715 416.818 91.715 433.841 91.715 435.121 79.555 434.992 72.006 L434.992 3.02 445.617 3.02 445.617 75.844 C445.617 92.996 434.227 101.314 416.818 101.314 Z M243.395 211.01 L243.395 115.02 265.922 115.02 265.922 191.811 293.442 191.811 293.442 211.01 Z M352.318 211.01 L349.117 192.324 331.455 192.324 328.767 211.01 306.113 211.01 327.103 115.02 354.236 115.02 375.099 211.01 Z M340.67 132.424 L340.414 132.424 333.887 175.428 346.942 175.428 Z M437.988 160.07 L437.988 160.326 C448.228 166.213 450.404 171.332 450.404 183.236 450.404 202.691 439.398 211.009 421.091 211.009 L389.351 211.009 389.351 115.019 418.535 115.019 C435.555 115.019 448.865 120.52 448.865 139.848 448.865 148.295 445.797 155.847 437.988 160.07 Z M411.877 132.296 L411.877 152.775 C421.732 152.133 426.34 152.775 426.34 141.383 426.34 131.911 419.813 132.296 411.877 132.296 Z M411.877 170.055 L411.877 193.731 C423.143 193.477 427.879 194.243 427.879 181.317 427.879 170.184 421.477 170.439 411.877 170.055 Z" fill="#444444" fill-opacity="1" stroke="none"/>
 <path id="長方形" d="M2 278 L450 278 450 231 2 231 Z" fill="#444444" fill-opacity="1" stroke="none"/>
 <path id="東北大学-乾研究室" d="M349.492 258.24 L344.98 258.24 C343.564 258.24 343.108 258.216 342.412 258.144 L342.412 260.64 C343.18 260.544 343.732 260.52 344.932 260.52 L349.492 260.52 349.492 262.8 343.132 262.8 C341.668 262.8 340.924 262.776 340.156 262.656 L340.156 265.272 C340.972 265.176 341.932 265.128 343.396 265.128 L358.54 265.128 C360.028 265.128 360.988 265.176 361.828 265.272 L361.828 262.656 C361.084 262.752 360.34 262.8 358.852 262.8 L352.132 262.8 352.132 260.52 357.1 260.52 C358.252 260.52 358.804 260.544 359.572 260.64 L359.572 258.144 C358.828 258.216 358.348 258.24 357.148 258.24 L352.132 258.24 352.132 256.008 C355.084 255.816 355.084 255.816 356.62 255.72 357.1 256.224 357.364 256.536 358.132 257.472 L360.076 255.816 C357.748 253.464 357.364 253.104 355.804 251.808 L356.356 251.808 C357.772 251.808 358.252 251.832 358.948 251.928 L358.948 250.68 361.396 250.68 C361.324 250.08 361.276 249.48 361.276 248.712 L361.276 247.392 C361.276 246.384 361.3 246.072 361.348 245.52 360.604 245.592 359.812 245.616 358.324 245.616 L352.108 245.616 352.108 245.28 C352.108 244.68 352.156 244.176 352.228 243.72 L349.3 243.72 C349.372 244.2 349.42 244.704 349.42 245.28 L349.42 245.616 343.564 245.616 C342.196 245.616 341.452 245.592 340.588 245.52 340.66 246.12 340.684 246.576 340.684 247.296 L340.684 248.52 C340.684 249.096 340.66 249.648 340.636 249.96 340.588 250.392 340.588 250.392 340.588 250.776 L342.988 250.776 342.988 251.928 C343.684 251.832 344.26 251.808 345.868 251.808 L347.02 251.808 C346.612 252.624 346.156 253.368 345.604 254.136 344.524 254.16 343.972 254.16 343.54 254.16 342.796 254.16 342.412 254.136 341.788 254.088 L342.076 256.512 C342.316 256.488 343.036 256.44 344.188 256.392 347.932 256.224 347.932 256.224 349.492 256.128 Z M358.78 249.528 C358.252 249.576 357.652 249.6 356.284 249.6 L345.58 249.6 C344.308 249.6 343.732 249.576 343.18 249.528 L343.18 247.92 358.78 247.92 Z M354.964 251.808 L353.5 252.672 C354.124 253.176 354.292 253.344 354.772 253.776 352.876 253.896 352.876 253.896 348.388 254.064 348.988 253.224 349.228 252.816 349.78 251.808 Z M314.884 246.072 L308.524 246.072 C307.42 246.072 306.796 246.048 305.884 245.952 305.956 246.504 305.98 246.96 305.98 247.728 L305.98 249.384 C305.98 250.128 305.932 250.656 305.86 251.184 L308.476 251.184 308.476 248.4 312.46 248.4 C312.268 249.48 311.908 250.176 311.212 250.776 310.324 251.544 309.316 251.904 306.436 252.432 307.156 253.344 307.444 253.824 307.876 254.64 311.38 253.728 312.7 253.032 313.804 251.496 314.452 250.608 314.692 249.984 315.076 248.4 L317.068 248.4 317.068 251.976 C317.068 253.368 317.764 253.752 320.26 253.752 322.564 253.752 323.644 253.656 324.196 253.416 324.892 253.104 325.18 252.552 325.372 251.208 L326.932 251.208 C326.86 250.656 326.836 250.176 326.836 249.432 L326.836 247.728 C326.836 246.936 326.86 246.48 326.932 245.952 325.996 246.048 325.396 246.072 324.292 246.072 L317.548 246.072 317.548 245.52 C317.548 244.848 317.572 244.416 317.668 243.96 L314.74 243.96 C314.836 244.464 314.884 244.848 314.884 245.52 Z M324.316 250.128 C323.788 250.008 323.572 249.96 323.02 249.744 322.996 250.44 322.948 250.896 322.852 251.112 322.684 251.424 322.204 251.544 321.028 251.544 319.708 251.544 319.516 251.472 319.516 250.944 L319.516 248.4 324.316 248.4 Z M315.964 255.648 C316.012 255.288 316.012 255.12 316.036 254.76 316.132 253.416 316.132 253.272 316.252 252.816 L313.396 252.816 C313.468 253.32 313.492 253.68 313.492 254.184 313.492 254.616 313.468 255.024 313.396 255.648 L309.556 255.648 C308.356 255.648 307.636 255.6 306.916 255.504 L306.916 258.144 C307.612 258.048 308.308 258.024 309.604 258.024 L312.916 258.024 C312.484 259.32 311.884 260.256 310.972 261.048 309.796 262.08 308.38 262.752 305.452 263.712 306.292 264.672 306.556 265.08 307.036 266.088 309.532 265.2 311.356 264.168 312.796 262.824 314.212 261.48 315.004 260.112 315.556 258.024 L319.108 258.024 319.036 263.208 319.036 263.376 C319.036 265.128 319.756 265.584 322.684 265.584 327.172 265.584 327.316 265.416 327.7 259.728 326.476 259.464 326.116 259.344 325.18 258.912 325.156 260.832 325.036 262.104 324.868 262.656 324.7 263.136 324.436 263.208 322.66 263.208 321.796 263.208 321.58 263.064 321.604 262.44 L321.676 257.712 C321.7 256.584 321.724 256.176 321.772 255.552 321.028 255.624 320.5 255.648 319.252 255.648 Z M282.652 252.696 C281.38 252.696 280.972 252.672 280.252 252.576 L280.252 255.264 C281.044 255.168 281.428 255.144 282.604 255.144 282.532 256.752 282.412 257.88 282.148 258.936 281.596 261.24 280.804 262.8 279.364 264.456 280.348 264.936 280.972 265.392 281.62 266.16 283.228 264.144 283.972 262.56 284.572 259.944 284.908 258.552 285.052 257.28 285.148 255.144 L287.932 255.144 287.932 262.992 C287.932 264.168 287.884 264.888 287.788 265.944 L290.644 265.944 C290.524 264.936 290.476 264.024 290.476 262.968 L290.476 255.144 290.668 255.144 C291.868 255.144 292.372 255.168 293.068 255.264 L293.068 252.576 C292.396 252.672 291.916 252.696 290.668 252.696 L290.476 252.696 290.476 247.008 C291.724 247.008 292.084 247.032 292.828 247.128 L292.828 244.512 C292.108 244.608 291.316 244.656 290.26 244.656 L283.324 244.656 C282.076 244.656 281.188 244.608 280.684 244.512 L280.684 247.128 C281.308 247.032 281.908 247.008 282.652 247.008 Z M285.196 252.696 L285.196 247.008 287.932 247.008 287.932 252.696 Z M274.06 247.08 C273.844 248.496 273.676 249.168 273.244 250.32 272.404 252.672 271.516 254.136 270.196 255.456 270.7 256.44 270.844 256.896 271.132 258.432 271.9 257.52 272.236 257.04 272.644 256.2 272.596 257.496 272.596 257.592 272.596 258.528 L272.596 262.92 C272.596 263.904 272.548 264.672 272.452 265.368 L275.044 265.368 275.044 262.968 277.108 262.968 277.108 264.072 279.484 264.072 C279.436 263.496 279.412 263.184 279.412 262.2 L279.412 253.944 C279.412 253.128 279.412 252.816 279.484 252.192 279.004 252.24 278.764 252.264 278.044 252.264 L275.14 252.264 C275.932 250.44 276.34 249.024 276.652 247.08 L277.876 247.08 C278.716 247.08 279.292 247.104 279.94 247.176 L279.94 244.608 C279.22 244.728 278.668 244.752 277.636 244.752 L273.436 244.752 C272.524 244.752 271.732 244.704 271.108 244.608 L271.108 247.2 C271.804 247.104 272.308 247.08 273.172 247.08 Z M275.044 254.568 L277.132 254.568 277.132 260.856 275.044 260.856 Z M240.508 246.072 L238.588 246.072 C237.46 246.072 237.004 246.048 236.356 245.952 L236.356 248.4 C237.052 248.328 237.364 248.304 238.54 248.304 L240.508 248.304 240.508 249.888 239.428 249.888 C238.18 249.888 237.796 249.888 237.1 249.816 237.172 250.536 237.196 251.016 237.196 252.12 L237.196 255.936 C237.196 257.184 237.172 257.832 237.1 258.576 237.844 258.528 238.348 258.504 239.428 258.504 L240.484 258.504 240.484 260.16 238.564 260.16 C237.508 260.16 237.004 260.136 236.38 260.04 L236.38 262.608 C237.052 262.512 237.556 262.488 238.564 262.488 L240.484 262.488 240.484 263.64 C240.484 264.864 240.46 265.416 240.34 266.088 L243.052 266.088 C242.932 265.392 242.884 264.84 242.884 263.64 L242.884 262.488 244.66 262.488 C245.788 262.488 246.172 262.512 246.844 262.584 L246.844 260.04 C246.22 260.136 245.716 260.16 244.66 260.16 L242.908 260.16 242.908 258.504 244.06 258.504 C245.212 258.504 245.692 258.528 246.364 258.576 246.316 257.976 246.292 257.52 246.292 255.96 L246.292 251.76 C246.94 252.288 247.108 252.432 247.54 252.936 247.828 252.6 247.924 252.48 248.14 252.24 L248.14 253.968 C248.788 253.872 249.244 253.848 250.252 253.848 L251.812 253.848 C252.556 253.848 252.988 253.824 253.42 253.8 248.812 258.504 247.444 260.616 247.444 262.968 247.444 264.792 248.716 265.512 251.932 265.512 255.268 265.512 256.588 265.272 257.356 264.528 258.052 263.808 258.364 262.608 258.46 260.088 257.668 259.872 256.948 259.584 256.012 259.08 255.964 262.944 255.844 263.088 252.556 263.088 250.708 263.088 250.18 262.896 250.18 262.2 250.18 261.504 250.852 260.232 251.884 259.008 253.156 257.448 255.46 254.952 256.684 253.824 257.212 253.32 257.212 253.32 257.452 253.104 L255.988 251.376 C255.436 251.448 254.908 251.472 254.02 251.472 L250.3 251.472 C249.556 251.472 249.196 251.472 248.74 251.424 249.388 250.512 249.652 250.056 250.132 249.192 L255.772 249.192 C256.636 249.192 257.596 249.24 258.364 249.336 L258.364 246.624 C257.644 246.72 256.9 246.768 255.748 246.768 L251.26 246.768 C251.524 246.048 251.668 245.688 251.812 245.28 252.076 244.512 252.076 244.512 252.196 244.176 L249.412 243.72 C249.22 245.688 247.972 248.4 246.316 250.464 246.316 250.176 246.34 250.104 246.364 249.816 245.836 249.864 245.332 249.888 244.06 249.888 L242.908 249.888 242.908 248.304 244.948 248.304 C246.172 248.304 246.532 248.328 247.132 248.4 L247.132 245.952 C246.484 246.048 245.98 246.072 244.804 246.072 L242.908 246.072 242.908 245.64 C242.908 244.824 242.932 244.416 243.076 243.792 L240.364 243.792 C240.484 244.296 240.508 244.752 240.508 245.616 Z M239.524 251.88 L244.036 251.88 244.036 253.2 239.524 253.2 Z M239.5 255.168 L244.036 255.168 244.036 256.512 239.5 256.512 Z M192.94 259.368 L192.94 262.92 C192.94 263.4 192.772 263.472 191.716 263.472 190.972 263.472 189.892 263.4 188.74 263.232 189.148 264.096 189.268 264.504 189.532 265.776 190.78 265.848 191.572 265.872 191.884 265.872 194.044 265.872 194.86 265.68 195.268 265.08 195.508 264.744 195.58 264.408 195.58 263.568 L195.58 259.368 201.82 259.368 C203.068 259.368 204.1 259.416 204.796 259.512 L204.796 256.848 C204.076 256.968 203.02 257.016 201.844 257.016 L195.58 257.016 195.58 256.992 C197.452 255.84 198.676 254.952 200.38 253.488 200.836 253.104 200.836 253.104 201.244 252.768 L199.924 251.304 C199.492 251.376 199.036 251.4 198.1 251.4 L190.156 251.4 C189.124 251.4 188.452 251.376 187.732 251.28 L187.732 253.68 C188.5 253.608 189.148 253.584 190.132 253.584 L196.732 253.584 C195.724 254.472 194.932 255 193.9 255.528 L192.868 255.528 C192.916 255.936 192.94 256.368 192.94 256.848 L192.94 257.016 186.412 257.016 C185.284 257.016 184.324 256.968 183.508 256.848 L183.508 259.512 C184.252 259.416 185.188 259.368 186.436 259.368 Z M186.532 247.512 C184.924 247.512 184.78 247.512 183.7 247.416 183.772 248.04 183.796 248.544 183.796 249.408 L183.796 251.616 C183.796 252.36 183.772 252.912 183.676 253.464 L186.292 253.464 186.292 249.744 201.94 249.744 201.94 253.464 204.556 253.464 C204.484 252.888 204.436 252.288 204.436 251.64 L204.436 249.408 C204.436 248.496 204.46 248.016 204.532 247.416 203.668 247.488 203.212 247.512 201.58 247.512 L200.5 247.512 C201.052 246.768 201.748 245.664 202.3 244.632 L199.708 243.912 C199.3 245.04 198.46 246.552 197.74 247.512 L195.7 247.512 C195.172 245.976 195.028 245.64 194.044 243.792 L191.548 244.488 C192.22 245.544 192.604 246.384 193.012 247.512 L190.468 247.512 C189.676 245.976 189.124 245.112 188.284 244.08 L185.86 244.8 C186.796 245.976 187.108 246.456 187.66 247.512 Z M167.188 252.192 C168.508 252.192 169.228 252.24 170.188 252.36 L170.188 249.312 C169.372 249.432 168.532 249.48 167.164 249.48 L160.804 249.48 C160.828 248.592 160.852 248.04 160.852 247.056 160.876 245.448 160.9 245.088 161.02 244.248 L157.852 244.248 C157.948 244.92 158.02 245.64 158.02 246.648 158.02 247.896 157.996 248.28 157.948 249.48 L152.068 249.48 C150.652 249.48 149.788 249.432 149.044 249.312 L149.044 252.36 C149.836 252.24 150.532 252.192 152.044 252.192 L157.708 252.192 C157.132 256.272 155.524 258.96 152.308 261.24 151.108 262.08 150.148 262.584 148.42 263.28 149.188 264.144 149.692 264.888 150.1 265.8 152.476 264.768 154.204 263.64 155.836 262.032 157.756 260.136 159.028 258.072 159.748 255.6 160.636 257.832 161.812 259.752 163.372 261.408 165.076 263.256 166.732 264.48 169.3 265.8 169.9 264.504 170.236 264 171.052 263.04 168.196 261.864 166.204 260.496 164.428 258.48 162.844 256.68 161.572 254.352 160.972 252.192 Z M120.388 251.976 L120.388 257.664 C118.78 258.504 117.94 258.888 116.02 259.656 115.18 259.992 114.724 260.136 113.98 260.28 L114.868 263.136 C115.108 263.016 115.516 262.824 115.924 262.656 117.628 261.888 118.948 261.264 120.388 260.448 L120.388 262.992 C120.388 264.36 120.34 265.08 120.244 265.896 L123.244 265.896 C123.124 265.128 123.1 264.432 123.1 263.016 L123.1 246.816 C123.1 245.52 123.124 244.848 123.244 244.08 L120.244 244.08 C120.34 244.872 120.388 245.544 120.388 246.816 L120.388 249.456 116.788 249.456 C115.636 249.456 115.132 249.432 114.532 249.312 L114.532 252.12 C115.156 252 115.756 251.976 116.788 251.976 Z M128.74 254.52 C130.444 253.584 130.444 253.584 131.428 252.984 132.532 252.288 134.548 250.896 135.244 250.344 135.628 250.032 135.772 249.912 136.012 249.744 L134.116 247.488 C133.228 248.592 130.948 250.344 128.74 251.592 L128.74 246.84 C128.74 245.568 128.764 244.896 128.884 244.08 L125.932 244.08 C126.028 244.824 126.076 245.496 126.076 246.84 L126.076 262.776 C126.076 263.904 126.364 264.528 127.084 264.864 127.708 265.176 128.428 265.248 130.564 265.248 131.812 265.248 132.484 265.224 133.012 265.152 133.756 265.032 134.38 264.792 134.764 264.456 135.58 263.736 136.012 261.984 136.156 258.744 135.316 258.504 134.524 258.168 133.612 257.688 133.612 259.872 133.444 261.6 133.18 262.104 132.892 262.656 132.364 262.8 130.684 262.8 129.052 262.8 128.74 262.68 128.74 262.08 Z M89.068 248.304 L89.068 249.648 84.34 249.648 C82.948 249.648 82.372 249.624 81.724 249.528 81.796 250.368 81.82 250.752 81.82 252 L81.82 256.416 C81.796 258.072 81.796 258.072 81.796 258.168 81.724 258.624 81.724 258.624 81.724 258.864 82.468 258.768 82.948 258.744 84.436 258.744 L87.028 258.744 C86.212 259.584 85.06 260.424 83.596 261.216 82.132 262.008 80.884 262.488 79.084 262.992 79.684 263.808 79.9 264.216 80.428 265.416 81.868 264.912 83.38 264.24 84.532 263.568 86.428 262.488 87.892 261.288 89.116 259.776 89.092 260.232 89.068 261.12 89.068 261.408 L89.068 263.136 C89.068 264.24 89.02 264.936 88.9 265.872 L91.852 265.872 C91.708 265.056 91.684 264.36 91.684 263.136 L91.684 261.408 C91.684 261 91.66 260.544 91.636 259.752 92.932 261.24 94.06 262.152 95.836 263.208 97.372 264.096 98.812 264.744 100.756 265.392 101.284 264.24 101.5 263.808 102.124 262.848 98.476 262.008 95.932 260.76 93.796 258.744 L96.676 258.744 C97.996 258.744 98.668 258.768 99.364 258.864 99.268 257.76 99.268 257.76 99.268 256.416 L99.268 251.976 C99.268 251.064 99.292 250.272 99.364 249.552 98.62 249.624 98.164 249.648 96.7 249.648 L91.684 249.648 91.684 248.304 98.404 248.304 C99.58 248.304 100.588 248.352 101.38 248.448 L101.38 245.808 C100.636 245.928 99.724 245.976 98.236 245.976 L91.684 245.976 C91.684 245.064 91.708 244.56 91.828 243.816 L88.9 243.816 C89.02 244.584 89.044 244.992 89.068 245.976 L82.732 245.976 C81.388 245.976 80.5 245.928 79.66 245.808 L79.66 248.448 C80.548 248.328 81.34 248.304 82.564 248.304 Z M89.068 251.712 L89.068 253.176 84.364 253.176 84.364 251.712 Z M91.684 251.712 L96.724 251.712 96.724 253.176 91.684 253.176 Z M89.068 255.168 L89.068 256.68 84.364 256.68 84.364 255.168 Z M91.684 255.168 L96.724 255.168 96.724 256.68 91.684 256.68 Z" fill="#ffffff" fill-opacity="1" stroke="none"/>
 <path id="知能情報科学講座-自然言語処理学分野" d="M424.476 304.216 L424.476 306.184 422.316 306.184 C421.452 306.184 420.78 306.136 420.132 306.064 L420.132 308.584 C420.804 308.512 421.476 308.464 422.316 308.464 L424.476 308.464 424.476 310.888 C421.98 311.176 421.092 311.224 419.652 311.248 L420.156 314.032 C420.876 313.864 421.044 313.84 422.676 313.6 425.844 313.12 427.692 312.784 431.172 311.968 L431.124 309.76 C429.204 310.192 428.484 310.312 426.756 310.576 L426.756 308.464 428.892 308.464 C429.876 308.464 430.452 308.488 431.1 308.584 L431.1 306.064 C430.428 306.16 429.852 306.184 428.892 306.184 L426.756 306.184 426.756 304.216 428.892 304.216 C429.708 304.216 430.356 304.24 430.812 304.288 430.764 303.808 430.764 303.376 430.764 302.152 L430.764 296.008 C430.764 295 430.788 294.4 430.836 293.776 430.212 293.848 429.636 293.872 428.628 293.872 L422.7 293.872 C421.788 293.872 421.116 293.848 420.396 293.776 420.468 294.376 420.492 295.048 420.492 295.984 L420.492 301.912 C420.492 302.728 420.444 303.544 420.396 304.288 420.9 304.24 421.62 304.216 422.412 304.216 Z M424.476 296.152 L424.476 298 422.604 298 422.604 296.152 Z M426.756 296.152 L428.676 296.152 428.676 298 426.756 298 Z M424.476 300.136 L424.476 302.056 422.604 302.056 422.604 300.136 Z M426.756 300.136 L428.676 300.136 428.676 302.056 426.756 302.056 Z M437.724 299.392 C438.732 298.456 439.14 298.024 440.364 296.512 440.748 296.032 440.916 295.792 441.3 295.336 L439.908 293.752 C439.452 293.824 438.948 293.848 437.94 293.848 L434.052 293.848 C433.044 293.848 432.372 293.824 431.724 293.728 L431.724 296.416 C432.396 296.344 433.044 296.296 433.884 296.296 L437.676 296.296 C437.196 296.896 436.692 297.4 435.828 298.12 435.084 297.64 434.7 297.424 433.5 296.776 L432.132 298.48 C434.076 299.584 435.348 300.424 436.404 301.312 L433.404 301.312 C432.348 301.312 431.892 301.288 431.244 301.192 L431.244 303.952 C431.892 303.856 432.42 303.832 433.404 303.832 L434.532 303.832 434.532 311.824 C434.532 312.256 434.34 312.4 433.764 312.4 433.236 312.4 432.276 312.304 431.316 312.16 431.724 313.336 431.796 313.672 431.892 314.704 432.732 314.752 433.284 314.776 433.692 314.776 436.284 314.776 437.028 314.248 437.028 312.424 L437.028 303.832 439.164 303.832 C438.588 305.008 438.06 305.776 437.196 306.808 437.916 307.192 438.108 307.312 439.14 308.104 440.148 306.736 440.748 305.68 441.516 303.976 441.78 303.4 441.804 303.352 442.068 302.8 L440.772 301.216 C440.316 301.288 439.812 301.312 438.804 301.312 L437.556 301.312 438.708 300.088 Z M402.084 303.496 C402.036 304.192 402.012 304.48 401.94 304.888 401.532 307.072 400.476 308.92 398.796 310.36 397.548 311.416 396.564 312.016 395.076 312.568 395.988 313.504 396.372 314.032 396.828 314.92 399.66 313.504 401.604 311.848 402.924 309.64 404.076 307.744 404.604 305.992 404.796 303.496 L409.404 303.496 C409.404 303.688 409.404 303.856 409.404 304 409.404 304.144 409.404 304.264 409.404 304.36 L409.404 304.888 C409.404 307.384 409.02 310.552 408.66 311.272 408.444 311.632 408.18 311.728 407.292 311.728 406.596 311.728 405.54 311.608 404.388 311.416 404.82 312.592 404.988 313.168 405.108 314.224 406.716 314.296 407.1 314.32 407.58 314.32 409.716 314.32 410.58 313.984 411.108 312.928 411.708 311.656 412.116 307.864 412.116 302.896 412.116 302.488 412.116 302.416 412.116 302.08 413.172 303.112 413.772 303.616 415.092 304.6 415.716 303.448 415.908 303.184 416.916 302.008 413.916 300.088 411.852 297.928 410.268 295.048 409.74 294.088 409.5 293.584 409.332 292.96 L406.668 293.992 C406.836 294.28 407.076 294.76 407.172 295 408.204 297.232 409.452 299.128 411.132 301.024 410.556 301.048 410.22 301.048 409.644 301.048 L400.812 301.048 C400.332 301.048 400.212 301.048 399.564 301 401.124 299.2 402.54 297.064 403.428 295.168 403.716 294.52 403.836 294.304 404.076 293.944 L401.196 292.912 C401.076 293.632 400.812 294.28 400.236 295.336 398.7 298.192 396.9 300.16 393.924 302.224 394.788 303.04 395.364 303.76 395.772 304.576 397.02 303.616 397.62 303.088 398.772 301.912 L398.772 303.616 C399.396 303.544 399.996 303.496 400.812 303.496 Z M378.972 308.368 L378.972 311.92 C378.972 312.4 378.804 312.472 377.748 312.472 377.004 312.472 375.924 312.4 374.772 312.232 375.18 313.096 375.3 313.504 375.564 314.776 376.812 314.848 377.604 314.872 377.916 314.872 380.076 314.872 380.892 314.68 381.3 314.08 381.54 313.744 381.612 313.408 381.612 312.568 L381.612 308.368 387.852 308.368 C389.1 308.368 390.132 308.416 390.828 308.512 L390.828 305.848 C390.108 305.968 389.052 306.016 387.876 306.016 L381.612 306.016 381.612 305.992 C383.484 304.84 384.708 303.952 386.412 302.488 386.868 302.104 386.868 302.104 387.276 301.768 L385.956 300.304 C385.524 300.376 385.068 300.4 384.132 300.4 L376.188 300.4 C375.156 300.4 374.484 300.376 373.764 300.28 L373.764 302.68 C374.532 302.608 375.18 302.584 376.164 302.584 L382.764 302.584 C381.756 303.472 380.964 304 379.932 304.528 L378.9 304.528 C378.948 304.936 378.972 305.368 378.972 305.848 L378.972 306.016 372.444 306.016 C371.316 306.016 370.356 305.968 369.54 305.848 L369.54 308.512 C370.284 308.416 371.22 308.368 372.468 308.368 Z M372.564 296.512 C370.956 296.512 370.812 296.512 369.732 296.416 369.804 297.04 369.828 297.544 369.828 298.408 L369.828 300.616 C369.828 301.36 369.804 301.912 369.708 302.464 L372.324 302.464 372.324 298.744 387.972 298.744 387.972 302.464 390.588 302.464 C390.516 301.888 390.468 301.288 390.468 300.64 L390.468 298.408 C390.468 297.496 390.492 297.016 390.564 296.416 389.7 296.488 389.244 296.512 387.612 296.512 L386.532 296.512 C387.084 295.768 387.78 294.664 388.332 293.632 L385.74 292.912 C385.332 294.04 384.492 295.552 383.772 296.512 L381.732 296.512 C381.204 294.976 381.06 294.64 380.076 292.792 L377.58 293.488 C378.252 294.544 378.636 295.384 379.044 296.512 L376.5 296.512 C375.708 294.976 375.156 294.112 374.316 293.08 L371.892 293.8 C372.828 294.976 373.14 295.456 373.692 296.512 Z M357.396 311.872 L353.1 311.872 C351.852 311.872 351.324 311.848 350.676 311.752 L350.676 314.32 C351.492 314.224 352.116 314.2 353.388 314.2 L363.492 314.2 C364.788 314.2 365.436 314.224 366.204 314.32 L366.204 311.752 C365.556 311.848 364.932 311.872 363.66 311.872 L359.796 311.872 359.796 309.4 362.892 309.4 C364.116 309.4 364.716 309.424 365.412 309.52 L365.412 307.048 C364.716 307.144 364.188 307.168 362.868 307.168 L359.796 307.168 359.796 305.2 362.556 305.2 C363.996 305.2 364.38 305.2 365.172 305.272 365.1 304.576 365.076 303.736 365.076 302.056 L365.076 296.944 C365.076 295.48 365.1 294.352 365.172 293.656 364.572 293.752 363.852 293.776 362.076 293.776 L355.452 293.776 C353.892 293.776 353.124 293.752 352.212 293.656 352.308 294.448 352.332 295.24 352.332 296.872 L352.332 302.296 C352.284 304.72 352.284 304.72 352.236 305.272 352.956 305.224 353.508 305.2 355.116 305.2 L357.396 305.2 357.396 307.168 354.708 307.168 C353.316 307.168 352.836 307.144 352.236 307.048 L352.236 309.496 C352.86 309.424 353.364 309.4 354.732 309.4 L357.396 309.4 Z M357.396 296.104 L357.396 298.504 354.732 298.504 354.732 296.104 Z M359.796 296.104 L362.58 296.104 362.58 298.504 359.796 298.504 Z M357.396 300.52 L357.396 302.944 354.732 302.944 354.732 300.52 Z M359.796 300.52 L362.58 300.52 362.58 302.944 359.796 302.944 Z M346.716 296.344 L346.716 301.024 345.972 301.024 C345.228 301.024 344.868 301 344.292 300.904 L344.292 303.376 C344.844 303.28 345.228 303.256 345.924 303.256 L346.716 303.256 346.716 308.968 C345.084 309.544 344.58 309.712 343.764 309.88 L344.412 312.592 C344.652 312.496 344.772 312.448 344.892 312.4 348.612 310.888 349.548 310.48 351.636 309.448 L351.564 306.904 C350.508 307.432 350.22 307.552 349.212 307.984 L349.212 303.256 349.764 303.256 C350.316 303.256 350.796 303.28 351.276 303.352 L351.276 300.904 C350.748 301 350.388 301.024 349.764 301.024 L349.212 301.024 349.212 296.344 349.932 296.344 C350.604 296.344 351.108 296.368 351.708 296.44 L351.708 293.872 C351.108 293.992 350.532 294.016 349.572 294.016 L346.188 294.016 C345.204 294.016 344.58 293.968 344.004 293.872 L344.004 296.464 C344.604 296.368 345.036 296.344 345.804 296.344 Z M324.252 295.768 C324.372 295.096 324.42 294.832 324.492 294.352 324.588 293.728 324.66 293.392 324.756 293.008 L322.092 292.768 C322.116 292.936 322.116 292.984 322.116 293.128 322.116 294.256 321.732 296.488 321.228 298.24 320.532 300.616 319.692 302.368 318.42 303.976 319.188 304.792 319.476 305.272 319.956 306.448 320.844 305.2 321.252 304.552 321.852 303.28 322.428 305.128 322.668 305.728 323.508 307.432 322.212 309.4 320.844 310.816 318.468 312.592 319.14 313.24 319.548 313.936 319.98 315.016 322.116 313.264 323.412 311.896 324.9 309.808 326.604 312.064 328.524 313.336 330.924 313.792 332.676 314.152 335.268 314.368 337.452 314.368 338.244 314.368 339.756 314.32 340.572 314.272 340.716 313.144 340.86 312.592 341.316 311.488 339.3 311.632 337.908 311.68 336.78 311.68 333.348 311.68 330.948 311.344 329.436 310.624 328.164 310.024 327.3 309.208 326.22 307.6 327.78 304.48 328.38 301.888 328.668 297.064 328.74 296.2 328.74 296.2 328.788 295.672 328.236 295.744 327.756 295.768 326.844 295.768 Z M326.172 298.048 C325.932 301.288 325.596 302.968 324.804 304.96 324.084 303.352 323.916 302.848 323.148 300.064 323.412 299.248 323.556 298.792 323.748 298.048 Z M334.86 296.488 L334.86 307.672 C334.86 309.088 335.412 309.448 337.62 309.448 339.18 309.448 339.852 309.184 340.212 308.44 340.572 307.648 340.764 306.16 340.86 303.136 340.116 303.016 339.54 302.8 338.796 302.416 338.748 304.48 338.7 305.464 338.58 306.16 338.46 306.904 338.364 307 337.812 307 337.332 307 337.236 306.928 337.236 306.592 L337.236 296.176 C337.236 295.168 337.26 294.496 337.332 293.992 336.9 294.064 336.228 294.088 335.172 294.088 L332.028 294.088 C331.116 294.088 330.684 294.064 330.228 293.992 330.3 294.496 330.324 295 330.324 295.864 330.324 303.688 329.892 305.896 327.948 308.296 328.956 308.896 329.388 309.28 330.084 310.048 331.284 308.32 331.812 306.952 332.22 304.672 332.58 302.56 332.7 300.448 332.724 296.488 Z M304.572 302.512 C303.372 302.512 302.916 302.488 302.196 302.392 L302.196 304.936 C302.916 304.84 303.468 304.816 304.572 304.816 L313.452 304.816 C314.46 304.816 315.012 304.84 315.804 304.936 L315.804 302.368 C315.084 302.488 314.772 302.512 313.62 302.512 L313.62 299.488 C313.62 298.6 313.644 298.144 313.716 297.616 313.212 297.688 312.66 297.712 311.82 297.712 L308.964 297.712 C309.06 297.376 309.204 296.752 309.444 295.84 L312.9 295.84 C314.076 295.84 314.7 295.864 315.444 295.96 L315.444 293.416 C314.796 293.488 314.004 293.536 312.78 293.536 L305.46 293.536 C304.38 293.536 303.588 293.488 302.772 293.416 L302.772 295.96 C303.516 295.864 304.14 295.84 305.292 295.84 L306.852 295.84 C306.66 296.752 306.66 296.752 306.42 297.712 L305.22 297.712 C304.428 297.712 303.876 297.688 303.3 297.616 L303.3 300.064 C303.852 299.992 304.476 299.968 305.172 299.968 L305.772 299.968 C305.46 301.024 305.34 301.36 304.908 302.512 Z M307.5 302.512 C307.908 301.408 308.004 301.144 308.34 299.968 L311.148 299.968 311.148 302.512 Z M294.468 295.672 C295.068 295.624 295.596 295.6 296.46 295.6 L299.7 295.6 C300.756 295.6 300.924 295.6 301.692 295.672 L301.692 293.344 C301.092 293.44 300.66 293.464 299.7 293.464 L296.46 293.464 C295.5 293.464 295.068 293.44 294.468 293.344 Z M293.676 299.152 C294.252 299.08 294.756 299.056 295.596 299.056 L300.252 299.056 C301.284 299.056 301.644 299.08 302.172 299.152 L302.172 296.68 C301.62 296.752 301.14 296.776 300.132 296.776 L295.596 296.776 C294.708 296.776 294.252 296.752 293.676 296.656 Z M294.516 302.488 C294.996 302.44 295.332 302.416 296.1 302.416 L300.132 302.416 C300.924 302.416 301.068 302.416 301.668 302.488 L301.668 300.256 C301.236 300.304 300.924 300.328 300.132 300.328 L296.1 300.328 C295.308 300.328 294.996 300.304 294.516 300.256 Z M294.516 305.824 C294.972 305.776 295.356 305.752 296.076 305.752 L300.084 305.752 C300.924 305.752 301.068 305.752 301.668 305.824 L301.668 303.616 C301.236 303.664 300.924 303.688 300.132 303.688 L296.1 303.688 C295.308 303.688 294.996 303.664 294.516 303.616 Z M294.42 312.592 C294.42 313.432 294.372 314.176 294.276 314.92 L296.748 314.92 296.748 313.792 299.532 313.792 299.532 314.608 301.884 314.608 C301.812 313.984 301.788 313.624 301.788 312.736 L301.788 308.728 C301.788 307.84 301.812 307.432 301.86 307 301.452 307.072 301.188 307.072 300.252 307.072 L296.148 307.072 C295.452 307.072 294.9 307.048 294.3 306.976 294.396 307.576 294.42 308.128 294.42 308.872 Z M296.772 309.112 L299.532 309.112 299.532 311.656 296.772 311.656 Z M303.468 312.544 C303.468 313.504 303.444 314.296 303.372 314.968 L306.036 314.968 306.036 313.888 311.844 313.888 311.844 314.944 314.58 314.944 C314.508 314.344 314.46 313.576 314.46 312.568 L314.46 308.032 C314.46 307.24 314.484 306.616 314.556 306.112 314.076 306.16 313.668 306.184 312.612 306.184 L305.436 306.184 C304.476 306.184 303.996 306.16 303.396 306.112 303.444 306.64 303.468 307.096 303.468 307.816 Z M306.036 308.416 L311.844 308.416 311.844 311.536 306.036 311.536 Z M287.46 293.416 C286.692 293.512 285.924 293.56 284.82 293.56 L273.948 293.56 C272.868 293.56 272.1 293.512 271.308 293.416 L271.308 295.816 C272.124 295.72 272.82 295.696 273.948 295.696 L284.82 295.696 C285.924 295.696 286.644 295.72 287.46 295.816 Z M290.172 296.824 C289.452 296.92 288.708 296.968 287.556 296.968 L271.188 296.968 C270.036 296.968 269.268 296.92 268.548 296.824 L268.548 299.368 C269.364 299.272 270.036 299.248 271.212 299.248 L287.532 299.248 C288.564 299.248 289.356 299.296 290.172 299.368 Z M287.244 300.4 C286.62 300.472 285.996 300.496 284.82 300.496 L273.972 300.496 C272.796 300.496 272.172 300.472 271.524 300.4 L271.524 302.728 C272.172 302.632 272.868 302.608 273.972 302.608 L284.82 302.608 C285.9 302.608 286.572 302.632 287.244 302.728 Z M287.244 303.736 C286.596 303.832 285.996 303.856 284.82 303.856 L273.972 303.856 C272.796 303.856 272.172 303.832 271.524 303.736 L271.524 306.088 C272.196 305.992 272.82 305.968 273.972 305.968 L284.82 305.968 C285.948 305.968 286.548 305.992 287.244 306.088 Z M273.804 313.936 L284.844 313.936 284.844 314.968 287.58 314.968 C287.484 314.296 287.46 313.744 287.46 312.736 L287.46 309.352 C287.46 308.296 287.484 307.816 287.556 307.264 287.052 307.336 286.62 307.36 285.66 307.36 L273.012 307.36 C272.148 307.36 271.692 307.336 271.116 307.264 271.212 307.984 271.236 308.44 271.236 309.352 L271.236 312.712 C271.236 313.408 271.188 314.2 271.116 314.944 L273.804 314.944 Z M273.804 309.592 L284.868 309.592 284.868 311.632 273.804 311.632 Z M245.604 302.032 C246.228 302.464 246.996 303.208 247.5 303.832 246.084 305.008 245.124 305.584 242.988 306.52 243.78 307.288 244.164 307.864 244.548 308.752 245.892 308.032 246.42 307.744 247.044 307.336 248.124 306.592 249.204 305.728 249.9 305.008 251.7 303.136 252.804 301.432 253.74 298.936 L253.74 300.352 C254.556 300.256 254.916 300.232 256.068 300.232 L256.476 300.232 C256.116 301.648 255.564 302.824 254.844 303.736 253.86 304.936 252.9 305.656 251.124 306.472 251.916 307.264 252.324 307.816 252.708 308.608 254.34 307.672 255.42 306.856 256.26 305.92 257.004 305.056 257.748 303.808 258.252 302.536 259.284 305.008 261.228 307.12 264.036 308.752 264.492 307.552 264.756 307.048 265.38 306.232 263.964 305.56 263.22 305.08 262.164 304.072 260.892 302.872 260.148 301.768 259.524 300.232 L262.164 300.232 C263.196 300.232 263.94 300.28 264.684 300.376 L264.684 297.76 C263.988 297.856 263.196 297.904 262.164 297.904 L259.308 297.904 C259.404 296.704 259.428 295.936 259.452 295.144 259.452 293.896 259.452 293.608 259.548 293.032 L256.788 293.032 C256.884 293.704 256.908 294.088 256.908 295.432 256.908 296.392 256.884 296.92 256.836 297.904 L256.068 297.904 C255.276 297.904 254.7 297.88 254.124 297.832 254.34 297.28 254.436 296.92 254.532 296.68 254.676 296.128 254.676 296.128 254.796 295.768 L253.5 294.448 C253.044 294.52 252.54 294.544 251.772 294.544 L249.852 294.544 C249.996 294.136 250.02 294.112 250.02 294.088 250.164 293.776 250.164 293.776 250.236 293.56 250.332 293.344 250.356 293.272 250.452 293.08 L247.812 292.744 C247.692 293.632 247.476 294.28 246.996 295.264 245.988 297.4 244.692 298.936 242.82 300.232 243.54 300.808 243.972 301.288 244.524 302.08 246.204 300.76 247.788 298.816 248.916 296.704 L252.084 296.704 C251.724 297.88 251.532 298.36 251.172 299.128 250.5 298.528 250.02 298.168 249.228 297.664 L248.052 299.248 C248.964 299.896 249.54 300.352 250.116 300.928 249.684 301.528 249.492 301.792 249.036 302.32 248.412 301.672 247.764 301.072 247.068 300.568 Z M259.98 294.28 C260.988 295.456 261.372 296.032 262.092 297.424 L264.036 296.176 C263.484 295.192 262.716 294.184 261.852 293.2 Z M245.364 315.232 C246.948 313.264 247.62 312.112 248.652 309.4 L246.42 308.344 C245.556 310.528 244.716 311.848 243.156 313.48 Z M253.092 314.632 C252.924 312.064 252.78 310.984 252.348 308.92 L249.996 309.184 C250.332 311.008 250.452 312.496 250.5 314.92 Z M258.732 314.176 C258.252 311.992 257.844 310.72 257.028 308.728 L254.724 309.232 C255.468 311.104 255.828 312.568 256.14 314.728 Z M265.092 313.624 C263.964 311.56 263.22 310.456 261.348 308.176 L259.38 309.4 C260.868 311.272 261.564 312.424 262.764 314.968 Z M223.284 295.768 C221.892 295.768 221.22 295.744 220.356 295.648 220.452 296.488 220.476 297.16 220.476 298.6 L220.476 312.04 C220.476 313.168 220.428 314.224 220.332 314.824 L223.044 314.824 223.044 313.6 234.9 313.6 234.9 314.824 237.66 314.824 C237.54 314.056 237.516 313.456 237.516 312.04 L237.516 298.6 C237.516 297.112 237.54 296.464 237.636 295.648 236.748 295.744 236.076 295.768 234.684 295.768 L229.116 295.768 C229.548 294.856 229.908 294.04 230.34 292.888 L227.316 292.6 C227.076 293.704 226.74 294.712 226.212 295.768 Z M223.068 298.216 L234.924 298.216 234.924 300.928 223.068 300.928 Z M223.068 303.232 L234.924 303.232 234.924 305.968 223.068 305.968 Z M223.068 308.272 L234.924 308.272 234.924 311.176 223.068 311.176 Z M194.916 307.168 L190.884 307.168 C189.708 307.168 189.3 307.144 188.7 307.048 L188.7 309.496 C189.348 309.424 189.636 309.4 190.884 309.4 L194.916 309.4 194.916 311.872 189.588 311.872 C188.316 311.872 187.884 311.848 187.236 311.776 L187.236 314.368 C188.124 314.272 189.036 314.224 190.044 314.224 L202.86 314.224 C203.892 314.224 204.876 314.272 205.668 314.368 L205.668 311.752 C205.02 311.848 204.396 311.872 203.316 311.872 L197.436 311.872 197.436 309.4 202.068 309.4 C203.268 309.4 203.676 309.424 204.3 309.52 L204.3 307.048 C203.652 307.144 203.172 307.168 202.068 307.168 L197.436 307.168 197.436 305.056 C198.036 305.488 198.54 305.92 199.068 306.496 200.076 305.248 200.508 304.576 201.132 303.304 202.02 304.624 202.764 305.392 204.108 306.496 204.516 305.656 204.948 304.984 205.524 304.336 203.844 303.328 203.004 302.56 202.02 301 202.164 300.496 202.236 300.232 202.356 299.8 202.668 298.6 202.668 298.6 202.812 298.096 L200.292 297.808 C200.244 298.84 200.052 299.704 199.548 301.048 198.996 302.536 198.444 303.472 197.436 304.624 L197.436 300.16 C197.436 298.792 197.46 298.36 197.556 297.784 L194.796 297.784 C194.892 298.384 194.916 298.84 194.916 300.16 L194.916 303.976 C193.5 302.8 192.972 302.176 192.3 300.928 192.468 300.352 192.66 299.56 192.996 298.144 L190.572 297.856 C190.476 299.176 190.212 300.304 189.78 301.48 189.3 302.704 188.796 303.496 187.812 304.6 187.932 302.272 187.956 300.616 187.98 297.232 L202.98 297.232 C203.988 297.232 204.924 297.28 205.5 297.352 L205.5 294.688 C204.756 294.784 203.676 294.832 202.644 294.832 L196.62 294.832 196.62 294.184 C196.62 293.584 196.644 293.2 196.74 292.768 L193.884 292.768 C193.98 293.2 194.004 293.608 194.004 294.136 L194.004 294.832 188.124 294.832 C187.092 294.832 186.252 294.808 185.244 294.712 185.316 295.408 185.34 295.936 185.364 296.968 185.364 297.28 185.364 297.688 185.364 298.216 185.364 306.352 184.812 310.048 183.252 312.568 184.116 313.312 184.716 313.912 185.34 314.752 186.156 313.288 186.588 312.16 186.996 310.384 187.404 308.752 187.668 306.856 187.764 305.152 188.34 305.56 188.532 305.752 189.276 306.544 190.14 305.512 190.86 304.408 191.412 303.256 192.06 304.312 192.66 305.08 193.62 306.136 194.124 305.2 194.412 304.696 194.916 304.024 Z M172.044 302.056 L172.044 303.088 169.452 303.088 C168.324 303.088 167.82 303.064 167.172 303.016 167.244 303.616 167.268 304.24 167.268 305.224 L167.268 308.944 C166.764 308.92 166.524 308.896 166.236 308.848 L166.236 311.128 C166.524 311.08 166.764 311.056 167.268 311.032 L167.268 311.968 C167.268 313.48 167.244 314.032 167.148 314.92 L169.644 314.92 C169.572 314.032 169.548 313.6 169.548 311.968 L169.548 311.032 176.94 311.032 176.94 312.064 C176.94 312.544 176.772 312.616 175.836 312.616 175.284 312.616 174.54 312.568 173.652 312.448 173.94 313.48 174.012 313.792 174.084 314.632 175.308 314.68 175.644 314.704 176.028 314.704 178.644 314.704 179.22 314.32 179.22 312.544 L179.22 311.032 C179.868 311.056 180.132 311.08 180.588 311.152 L180.588 308.824 C180.132 308.92 179.82 308.944 179.22 308.944 L179.22 305.344 C179.268 303.52 179.268 303.52 179.34 302.992 178.788 303.04 178.044 303.088 177.108 303.088 L174.324 303.088 174.324 302.056 178.596 302.056 C179.58 302.056 179.94 302.08 180.54 302.176 L180.54 299.992 C180.036 300.088 179.58 300.112 178.62 300.112 L176.916 300.112 176.916 299.08 177.972 299.08 C178.62 299.08 179.22 299.104 179.652 299.176 L179.652 297.208 C179.124 297.28 178.788 297.304 177.996 297.304 L176.916 297.304 176.916 296.344 178.428 296.344 C179.148 296.344 179.628 296.368 180.18 296.44 L180.18 294.328 C179.7 294.424 179.22 294.448 178.428 294.448 L176.916 294.448 C176.916 293.728 176.964 293.32 177.084 292.864 L174.516 292.864 C174.612 293.296 174.636 293.488 174.636 294.448 L171.684 294.448 C171.684 293.608 171.708 293.272 171.828 292.864 L169.26 292.864 C169.38 293.296 169.404 293.608 169.404 294.448 L168.42 294.448 C167.556 294.448 167.148 294.424 166.572 294.328 L166.572 296.44 C167.124 296.368 167.58 296.344 168.348 296.344 L169.404 296.344 169.404 297.304 168.756 297.304 C168.036 297.304 167.46 297.28 167.052 297.208 L167.052 299.176 C167.484 299.104 168.06 299.08 168.756 299.08 L169.404 299.08 169.404 300.112 168.324 300.112 C167.412 300.112 166.98 300.088 166.356 299.992 L166.356 302.176 C166.956 302.08 167.436 302.056 168.324 302.056 Z M172.044 308.944 L169.548 308.944 169.548 307.768 172.044 307.768 Z M174.324 308.944 L174.324 307.768 176.94 307.768 176.94 308.944 Z M172.044 306.04 L169.548 306.04 169.548 304.936 172.044 304.936 Z M174.324 306.04 L174.324 304.936 176.94 304.936 176.94 306.04 Z M171.684 300.112 L171.684 299.08 174.636 299.08 174.636 300.112 Z M171.684 297.304 L171.684 296.344 174.636 296.344 174.636 297.304 Z M159.18 295.768 C159.756 295.696 160.308 295.672 161.148 295.672 L163.74 295.672 C164.604 295.672 165.084 295.696 165.708 295.768 L165.708 293.368 C165.084 293.464 164.7 293.488 163.74 293.488 L161.148 293.488 C160.188 293.488 159.804 293.464 159.18 293.368 Z M158.436 299.224 C158.988 299.152 159.492 299.128 160.308 299.128 L164.292 299.128 C165.3 299.128 165.492 299.128 166.068 299.224 L166.068 296.776 C165.516 296.848 165.156 296.872 164.196 296.872 L160.308 296.872 C159.468 296.872 158.988 296.848 158.436 296.752 Z M159.276 302.56 C159.732 302.512 160.068 302.488 160.812 302.488 L164.22 302.488 C164.916 302.488 165.18 302.512 165.708 302.56 L165.708 300.328 C165.3 300.376 164.988 300.4 164.22 300.4 L160.812 300.4 C160.044 300.4 159.732 300.376 159.276 300.328 Z M159.276 305.92 C159.732 305.872 160.092 305.848 160.788 305.848 L164.172 305.848 C164.988 305.848 165.3 305.872 165.708 305.92 L165.708 303.616 C165.276 303.664 164.988 303.688 164.22 303.688 L160.812 303.688 C160.044 303.688 159.732 303.664 159.276 303.616 Z M161.34 314.944 L161.34 313.768 163.644 313.768 163.644 314.512 165.828 314.512 C165.78 314.152 165.756 313.456 165.756 312.832 L165.756 308.944 C165.756 307.936 165.756 307.672 165.828 307.12 165.396 307.192 165.108 307.216 164.316 307.216 L160.74 307.216 C159.996 307.216 159.684 307.192 159.036 307.144 159.132 307.816 159.156 308.296 159.156 309.112 L159.156 312.592 C159.156 313.432 159.108 314.272 159.012 314.944 Z M161.268 309.232 L163.668 309.232 163.668 311.656 161.268 311.656 Z M142.98 308.368 L142.98 311.92 C142.98 312.4 142.812 312.472 141.756 312.472 141.012 312.472 139.932 312.4 138.78 312.232 139.188 313.096 139.308 313.504 139.572 314.776 140.82 314.848 141.612 314.872 141.924 314.872 144.084 314.872 144.9 314.68 145.308 314.08 145.548 313.744 145.62 313.408 145.62 312.568 L145.62 308.368 151.86 308.368 C153.108 308.368 154.14 308.416 154.836 308.512 L154.836 305.848 C154.116 305.968 153.06 306.016 151.884 306.016 L145.62 306.016 145.62 305.992 C147.492 304.84 148.716 303.952 150.42 302.488 150.876 302.104 150.876 302.104 151.284 301.768 L149.964 300.304 C149.532 300.376 149.076 300.4 148.14 300.4 L140.196 300.4 C139.164 300.4 138.492 300.376 137.772 300.28 L137.772 302.68 C138.54 302.608 139.188 302.584 140.172 302.584 L146.772 302.584 C145.764 303.472 144.972 304 143.94 304.528 L142.908 304.528 C142.956 304.936 142.98 305.368 142.98 305.848 L142.98 306.016 136.452 306.016 C135.324 306.016 134.364 305.968 133.548 305.848 L133.548 308.512 C134.292 308.416 135.228 308.368 136.476 308.368 Z M136.572 296.512 C134.964 296.512 134.82 296.512 133.74 296.416 133.812 297.04 133.836 297.544 133.836 298.408 L133.836 300.616 C133.836 301.36 133.812 301.912 133.716 302.464 L136.332 302.464 136.332 298.744 151.98 298.744 151.98 302.464 154.596 302.464 C154.524 301.888 154.476 301.288 154.476 300.64 L154.476 298.408 C154.476 297.496 154.5 297.016 154.572 296.416 153.708 296.488 153.252 296.512 151.62 296.512 L150.54 296.512 C151.092 295.768 151.788 294.664 152.34 293.632 L149.748 292.912 C149.34 294.04 148.5 295.552 147.78 296.512 L145.74 296.512 C145.212 294.976 145.068 294.64 144.084 292.792 L141.588 293.488 C142.26 294.544 142.644 295.384 143.052 296.512 L140.508 296.512 C139.716 294.976 139.164 294.112 138.324 293.08 L135.9 293.8 C136.836 294.976 137.148 295.456 137.7 296.512 Z M125.1 306.616 L119.316 307.912 C118.38 308.128 117.828 308.224 117.18 308.248 117.156 308.248 117.108 308.248 117.06 308.248 L117.372 311.032 C117.972 310.864 118.764 310.648 119.7 310.432 L125.1 309.232 125.1 312.208 C125.1 313.672 125.076 314.248 124.956 315.064 L127.86 315.064 C127.74 314.296 127.716 313.576 127.716 312.232 L127.716 308.656 127.908 308.608 C128.844 308.392 129.54 308.272 130.188 308.2 L129.972 305.392 C129.228 305.68 129.084 305.728 127.716 306.04 L127.716 295.696 C127.716 294.376 127.74 293.728 127.86 292.936 L124.956 292.936 C125.076 293.68 125.1 294.328 125.1 295.72 Z M112.044 299.128 L110.532 299.128 C109.596 299.128 109.068 299.104 108.372 298.984 L108.372 301.6 C109.068 301.48 109.62 301.456 110.484 301.456 L111.732 301.456 C111.516 302.152 111.06 303.256 110.58 304.168 109.74 305.8 108.972 306.928 107.868 308.056 108.588 308.992 108.756 309.304 109.284 310.552 110.652 308.824 111.42 307.36 112.188 305.152 112.068 306.952 112.044 307.648 112.044 308.2 L112.044 312.088 C112.044 313.336 111.996 314.152 111.9 315.04 L114.732 315.04 C114.612 314.128 114.588 313.456 114.588 312.088 L114.588 307.384 C114.54 305.92 114.516 304.864 114.468 304.264 115.068 305.584 115.548 306.28 116.724 307.552 117.108 306.544 117.492 305.872 118.02 305.2 116.388 303.976 115.38 302.824 114.708 301.456 L115.86 301.456 C116.604 301.456 117.132 301.48 117.684 301.576 L117.684 299.008 C117.18 299.104 116.724 299.128 115.908 299.128 L114.588 299.128 114.588 296.176 C115.788 295.84 116.964 295.456 117.612 295.192 117.9 295.048 117.9 295.048 117.996 295.024 L116.508 292.816 C115.068 293.752 112.212 294.448 108.324 294.856 108.828 295.744 108.996 296.176 109.236 297.16 110.652 296.968 111.06 296.92 112.044 296.728 Z M118.524 296.224 C120.492 297.544 121.524 298.456 123.06 300.184 L124.692 298.024 C123.372 296.632 122.388 295.84 120.06 294.256 Z M117.708 302.176 C119.484 303.352 120.372 304.12 122.268 306.112 L123.78 303.976 C122.244 302.488 121.38 301.768 119.244 300.256 Z M103.26 301.144 C102.756 301.216 102.132 301.24 100.98 301.24 L96.468 301.24 96.468 295.984 101.7 295.984 C101.604 297.76 101.484 298 100.74 298 100.212 298 99.228 297.88 98.268 297.712 98.556 298.48 98.652 298.912 98.796 299.968 99.876 300.064 100.308 300.088 100.956 300.088 103.596 300.088 103.932 299.584 104.22 295.168 104.244 294.592 104.268 294.304 104.34 293.608 103.932 293.68 103.188 293.728 102.108 293.728 L96.204 293.728 C95.316 293.728 94.644 293.704 93.948 293.608 94.02 294.256 94.068 295.192 94.068 296.056 L94.068 312.112 C94.068 313.36 94.044 313.96 93.9 314.968 L96.636 314.968 C96.54 314.152 96.492 313.672 96.468 312.712 97.02 313.456 97.356 313.96 97.812 314.8 99.036 313.744 99.828 312.88 100.668 311.704 101.724 312.952 102.54 313.72 103.932 314.824 104.34 313.888 104.58 313.432 105.324 312.28 103.74 311.296 102.948 310.648 102.012 309.496 102.828 307.888 103.548 305.752 104.052 303.544 104.172 302.944 104.22 302.8 104.34 302.488 Z M96.468 303.52 L96.852 303.52 C97.62 306.616 98.1 307.888 99.132 309.592 98.364 310.696 97.572 311.512 96.468 312.376 Z M101.652 303.52 C101.292 305.248 100.98 306.208 100.476 307.336 99.804 306.136 99.444 305.176 99.036 303.52 Z M89.556 299.2 L89.556 297.352 90.972 297.352 C91.812 297.352 92.34 297.376 92.964 297.448 L92.964 294.952 C92.388 295.024 91.932 295.048 90.972 295.048 L89.556 295.048 89.556 294.616 C89.556 293.848 89.58 293.344 89.652 292.792 L87.06 292.792 C87.156 293.128 87.204 293.944 87.204 294.616 L87.204 295.048 85.572 295.048 C84.612 295.048 84.156 295.024 83.58 294.952 L83.58 297.448 C84.228 297.376 84.708 297.352 85.572 297.352 L87.204 297.352 87.204 299.2 85.044 299.2 C84.084 299.2 83.58 299.176 82.956 299.08 L82.956 301.624 C83.508 301.552 83.892 301.528 84.684 301.528 85.02 302.584 85.164 303.232 85.308 304.192 L85.044 304.192 C83.94 304.192 83.556 304.168 82.956 304.072 L82.956 306.616 C83.628 306.544 84.132 306.52 85.044 306.52 L87.18 306.52 87.18 308.44 85.452 308.44 C84.54 308.44 84.06 308.416 83.46 308.344 L83.46 310.864 C84.132 310.792 84.54 310.768 85.452 310.768 L87.18 310.768 87.18 312.52 C87.18 313.456 87.132 314.176 87.036 314.968 L89.676 314.968 C89.604 314.2 89.556 313.312 89.556 312.52 L89.556 310.768 91.188 310.768 C92.076 310.768 92.556 310.792 93.18 310.864 L93.18 308.344 C92.58 308.416 92.1 308.44 91.188 308.44 L89.556 308.44 89.556 306.52 91.428 306.52 C92.364 306.52 92.868 306.544 93.516 306.616 L93.516 304.072 C92.988 304.168 92.532 304.192 91.668 304.192 L91.38 304.192 C91.788 303.136 91.908 302.68 92.172 301.528 92.748 301.552 93.06 301.552 93.516 301.624 L93.516 299.08 C92.868 299.176 92.436 299.2 91.428 299.2 Z M87.564 304.192 C87.396 303.136 87.3 302.68 86.964 301.528 L89.844 301.528 C89.652 302.536 89.436 303.376 89.124 304.192 Z M62.892 298.048 C63.252 298.96 63.492 299.704 63.732 300.712 L64.476 300.376 64.476 302.488 C65.148 302.368 65.724 302.344 66.9 302.344 L77.124 302.344 C78.108 302.344 78.78 302.392 79.5 302.488 L79.5 300.136 C78.852 300.232 78.276 300.256 77.124 300.256 L72.924 300.256 72.924 299.296 76.26 299.296 C77.244 299.296 77.724 299.32 78.3 299.392 L78.3 297.256 C77.724 297.328 77.34 297.352 76.308 297.352 L72.924 297.352 72.924 296.464 76.644 296.464 C77.796 296.464 78.396 296.488 79.092 296.584 L79.092 294.28 C78.396 294.4 77.916 294.424 76.596 294.424 L72.924 294.424 C72.924 293.68 72.948 293.368 73.068 292.792 L70.308 292.792 C70.428 293.344 70.452 293.704 70.452 294.424 L67.476 294.424 C66.18 294.424 65.676 294.4 64.98 294.28 L64.98 296.584 C65.628 296.488 66.084 296.464 67.356 296.464 L70.452 296.464 70.452 297.352 67.74 297.352 C66.756 297.352 66.324 297.328 65.7 297.256 L65.7 299.392 C66.372 299.32 66.78 299.296 67.716 299.296 L70.452 299.296 70.452 300.256 66.9 300.256 C65.964 300.256 65.484 300.232 64.884 300.184 L65.532 299.896 C64.956 298.12 64.908 297.976 64.308 296.776 L62.892 297.328 62.892 295.336 C62.892 294.208 62.916 293.608 63.036 292.768 L60.228 292.768 C60.348 293.608 60.396 294.28 60.396 295.336 L60.396 311.944 C60.396 313.096 60.348 314.176 60.228 314.992 L63.036 314.992 C62.94 314.104 62.892 313.264 62.892 312.016 Z M68.1 311.2 L75.444 311.2 75.444 312.016 C75.444 312.496 75.3 312.592 74.532 312.592 73.932 312.592 73.164 312.52 72.18 312.376 72.492 313.24 72.588 313.648 72.732 314.68 73.908 314.752 74.364 314.776 74.892 314.776 77.316 314.776 77.964 314.296 77.964 312.472 L77.964 305.704 C77.964 304.528 77.988 303.808 78.06 303.232 77.556 303.304 76.956 303.328 75.9 303.328 L67.452 303.328 C66.612 303.328 66.108 303.304 65.532 303.256 65.58 303.928 65.604 304.384 65.604 305.296 L65.604 312.208 C65.604 313.6 65.58 314.152 65.484 314.944 L68.244 314.944 C68.148 314.224 68.1 313.384 68.1 312.208 Z M68.1 309.232 L68.1 308.248 75.444 308.248 75.444 309.232 Z M68.1 306.304 L68.1 305.32 75.444 305.32 75.444 306.304 Z M59.124 304.576 C59.628 302.488 59.844 300.496 59.892 297.88 L57.996 297.448 C57.972 300.184 57.804 301.672 57.204 303.784 Z M32.604 299.872 C32.964 299.8 33.564 299.728 34.164 299.704 35.82 299.608 39.9 299.176 41.436 298.936 41.604 299.32 41.724 299.608 41.988 300.232 L44.148 298.96 C42.996 296.728 42.276 295.48 41.172 293.944 L39.252 294.88 C39.78 295.744 39.924 295.96 40.356 296.8 38.868 296.992 38.292 297.04 36.756 297.136 37.308 296.224 38.172 294.616 38.46 293.992 38.628 293.632 38.724 293.416 38.916 293.104 L36.132 292.6 C35.796 294.016 35.196 295.408 34.116 297.256 33.972 297.256 33.828 297.256 33.756 297.256 33.612 297.28 33.516 297.28 33.468 297.28 33.252 297.28 32.628 297.256 32.316 297.208 Z M46.86 294.904 C46.86 293.968 46.884 293.488 46.98 292.96 L44.22 292.96 C44.316 293.512 44.34 294.112 44.34 295.024 L44.34 301 C44.34 301.864 44.604 302.32 45.276 302.584 45.9 302.848 46.644 302.92 48.564 302.92 51.708 302.92 52.62 302.776 53.244 302.176 53.796 301.624 54.012 300.808 54.204 298.552 53.364 298.408 52.62 298.192 51.804 297.808 51.756 299.584 51.66 300.064 51.396 300.304 51.084 300.544 50.532 300.616 48.588 300.616 47.076 300.616 46.86 300.52 46.86 299.944 L46.86 298.432 C48.996 297.808 50.868 297.088 52.404 296.32 53.58 295.744 53.58 295.744 54.084 295.528 L52.308 293.32 C51.564 293.944 50.868 294.352 49.524 295 48.708 295.408 48.108 295.624 46.86 296.008 Z M46.884 305.992 C46.884 304.936 46.908 304.504 47.004 304 L44.244 304 C44.34 304.576 44.364 305.032 44.364 306.136 L44.364 312.448 C44.364 313.24 44.556 313.672 45.108 314.008 45.732 314.392 46.5 314.488 48.852 314.488 51.876 314.488 52.716 314.32 53.364 313.6 53.988 312.904 54.252 311.992 54.42 309.736 53.556 309.568 52.692 309.28 51.972 308.92 51.948 310.312 51.804 311.368 51.588 311.68 51.372 312.04 50.772 312.16 49.188 312.16 48.324 312.16 47.868 312.136 47.484 312.04 47.028 311.944 46.884 311.8 46.884 311.392 L46.884 309.136 C49.044 308.536 49.284 308.464 50.46 308.032 51.204 307.744 53.556 306.688 54.252 306.304 L52.428 304.192 C50.916 305.344 49.188 306.136 46.884 306.784 Z M33.684 312.352 C33.684 313.528 33.66 314.152 33.564 314.968 L36.3 314.968 C36.204 314.2 36.18 313.432 36.18 312.304 L36.18 309.928 40.212 309.928 40.212 311.92 C40.164 312.28 40.068 312.352 39.564 312.352 39.036 312.352 38.412 312.28 37.956 312.184 38.268 313.12 38.412 313.792 38.484 314.632 38.916 314.656 39.276 314.656 39.492 314.656 40.74 314.656 41.508 314.512 42.012 314.2 42.492 313.912 42.684 313.36 42.684 312.328 L42.684 302.776 C42.684 301.576 42.708 301.192 42.756 300.52 42.132 300.592 41.58 300.616 40.596 300.616 L35.316 300.616 C34.548 300.616 34.116 300.592 33.588 300.544 33.66 301.264 33.684 301.912 33.684 302.752 Z M36.156 302.8 L40.212 302.8 40.212 304.288 36.156 304.288 Z M36.156 306.352 L40.212 306.352 40.212 307.84 36.156 307.84 Z M12.3 298.264 C12.276 300.016 12.228 301.288 12.18 302.032 L10.14 302.032 C8.748 302.032 8.148 302.008 7.452 301.888 L7.452 304.576 C8.148 304.456 8.796 304.432 10.068 304.432 L11.916 304.432 C11.676 305.824 11.388 306.832 10.932 307.816 10.044 309.616 8.796 310.984 6.9 312.16 7.884 312.856 8.364 313.36 8.892 314.32 11.46 312.184 12.588 310.696 13.524 308.248 14.316 309.76 15.516 311.2 17.244 312.784 17.7 311.656 18.084 310.96 18.708 310.168 17.244 309.04 16.524 308.344 15.588 307.144 15.084 306.52 14.892 306.232 14.34 305.248 14.412 304.888 14.436 304.768 14.484 304.432 L16.092 304.432 C17.124 304.432 17.772 304.456 18.42 304.552 L18.42 301.912 C17.748 302.008 17.196 302.032 16.164 302.032 L14.724 302.032 C14.82 300.808 14.82 300.808 14.868 298.264 L15.756 298.264 C16.668 298.264 17.436 298.312 18.132 298.384 L18.132 295.768 C17.46 295.864 16.884 295.888 15.756 295.888 L12.132 295.888 C12.348 295.288 12.492 294.88 12.636 294.376 12.852 293.656 12.924 293.44 13.044 293.128 L10.332 292.6 C10.308 293.056 10.236 293.464 10.044 294.088 9.372 296.488 8.508 298.072 6.972 299.704 7.884 300.304 8.412 300.784 9.036 301.528 9.996 300.352 10.452 299.632 11.124 298.264 Z M21.54 312.568 L25.668 312.568 25.668 314.224 28.38 314.224 C28.284 313.336 28.236 312.304 28.236 311.2 L28.236 297.304 C28.236 296.2 28.26 295.528 28.356 294.76 27.66 294.856 27.084 294.88 26.124 294.88 L21.084 294.88 C20.052 294.88 19.572 294.856 18.876 294.76 18.972 295.552 19.02 296.344 19.02 297.304 L19.02 311.44 C19.02 312.4 18.948 313.432 18.876 314.2 L21.54 314.2 Z M21.588 297.28 L25.668 297.28 25.668 310.168 21.588 310.168 Z" fill="#444444" fill-opacity="1" stroke="none"/>
 <path id="パス-1" d="M43.067 211.01 L25.531 157.254 25.274 157.51 27.322 211.01 5.95 211.01 5.95 115.02 29.116 115.02 46.521 168.645 46.906 168.645 44.73 115.02 66.105 115.02 66.105 211.01 Z" fill="#e95800" fill-opacity="1" stroke="none"/>
 <path id="パス-2" d="M82.557 211.01 L82.557 115.02 105.085 115.02 105.085 191.811 132.603 191.811 132.603 211.01 Z" fill="#e95800" fill-opacity="1" stroke="none"/>
 <path id="パス-3" d="M193.143 170.566 C185.338 174.406 176.247 173.252 167.801 173.636 L167.801 211.009 145.276 211.009 145.276 115.019 172.025 115.019 C180.731 115.019 193.272 115.785 199.543 122.953 204.791 128.842 205.816 136.006 205.816 143.815 205.815 154.184 203.384 165.832 193.143 170.566 Z M179.063 133.065 C176.888 132.295 173.818 132.295 170.233 132.295 L167.8 132.295 167.8 156.358 C172.024 156.23 176.888 156.74 180.473 153.926 182.777 151.365 183.286 147.524 183.286 144.197 183.287 140.489 182.906 134.856 179.063 133.065 Z" fill="#e95800" fill-opacity="1" stroke="none"/>
</svg>
